<svg xmlns="http://www.w3.org/2000/svg" id="a15f5193-22ba-46bc-96e5-a434817cc7c2" data-name="Layer 1" width="42.0006" height="44.4545" viewBox="0 0 42.0006 44.4545"><title>icon1</title><path d="M8.0009,12A5,5,0,1,0,3,7.0009,5.0038,5.0038,0,0,0,8.0009,12Zm0-7.9987A3,3,0,1,1,5,7.0009,3.004,3.004,0,0,1,8.0009,4.0013Z" transform="translate(0.0006 -0.0837)" style="fill-rule:evenodd"></path><path d="M34,12a5,5,0,1,0-5-4.9991A5.0047,5.0047,0,0,0,34,12Zm0-7.9987a3,3,0,1,1-3.0007,3A3.0041,3.0041,0,0,1,34,4.0013Z" transform="translate(0.0006 -0.0837)" style="fill-rule:evenodd"></path><path d="M29.59,26.5847,28.3871,15.9073a4.8364,4.8364,0,0,0-4.63-4.4666h-4.636a4.83,4.83,0,0,0-4.6285,4.4666L13.29,26.5847a3.1447,3.1447,0,0,0,.7466,2.4315,2.6709,2.6709,0,0,0,1.8635.9314l1.0024,13.74a.9128.9128,0,0,0,.9046.8506H25.07a.9132.9132,0,0,0,.9062-.8506l1.0009-13.74a2.6712,2.6712,0,0,0,1.865-.9314A3.1538,3.1538,0,0,0,29.59,26.5847Zm-2.1013,1.2074a.8969.8969,0,0,1-.6653.32h-.6893a.9131.9131,0,0,0-.9062.8506L24.2252,42.7H18.6514L17.6505,28.9628a.9145.9145,0,0,0-.9076-.8506h-.6894a.8915.8915,0,0,1-.6623-.3186,1.2848,1.2848,0,0,1-.2951-1l1.2-10.6788a3.0139,3.0139,0,0,1,2.8253-2.8355h4.636a3.0128,3.0128,0,0,1,2.8238,2.8355l1.2027,10.6788A1.289,1.289,0,0,1,27.4885,27.7921Z" transform="translate(0.0006 -0.0837)" style="fill-rule:evenodd"></path><path d="M21.439,9.6567A4.7868,4.7868,0,1,0,16.7012,4.871,4.7677,4.7677,0,0,0,21.439,9.6567Zm0-7.6588A2.8724,2.8724,0,1,1,18.5963,4.871,2.8621,2.8621,0,0,1,21.439,1.9979Z" transform="translate(0.0006 -0.0837)" style="fill-rule:evenodd"></path><path d="M12.7339,31.1376a.9656.9656,0,0,0-1.0033.84l-.658,8.904H5.3139l-.8757-11.823a.9239.9239,0,0,0-.9365-.8415H2.8141a.931.931,0,0,1-.7015-.3059.8728.8728,0,0,1-.23-.71l1.2024-9.273a2.7854,2.7854,0,0,1,2.7923-2.3759h4.6308a2.8534,2.8534,0,0,1,.7109.1019.9421.9421,0,0,0,1.1449-.6494.9031.9031,0,0,0-.6751-1.1026,4.8135,4.8135,0,0,0-1.1807-.159H5.8771a4.6419,4.6419,0,0,0-4.6527,3.9616L.02,26.9766A2.6617,2.6617,0,0,0,.7048,29.11a2.8578,2.8578,0,0,0,1.9242.9119l.8743,11.829a.9274.9274,0,0,0,.938.84h7.504a.9258.9258,0,0,0,.9364-.84l.7218-9.7455A.9147.9147,0,0,0,12.7339,31.1376Z" transform="translate(0.0006 -0.0837)" style="fill-rule:evenodd"></path><path d="M41.9785,27.2557,40.744,17.97A4.7377,4.7377,0,0,0,35.958,14h-4.76a5.0412,5.0412,0,0,0-1.6054.2675.8888.8888,0,0,0-.5868,1.1556.9785.9785,0,0,0,1.23.55,3.0662,3.0662,0,0,1,.9626-.1608h4.76a2.8424,2.8424,0,0,1,2.872,2.3819L40.066,27.48a.8632.8632,0,0,1-.2367.7138.9685.9685,0,0,1-.7211.3066h-.7068a.9436.9436,0,0,0-.9643.843l-.8986,11.8447h-5.92L29.9264,32.06a.959.959,0,0,0-1.0314-.8416.9247.9247,0,0,0-.8923.9678l.7548,9.9722A.9445.9445,0,0,0,29.7217,43h7.7138a.9408.9408,0,0,0,.9627-.8416l.9-11.8506a2.97,2.97,0,0,0,1.978-.9137A2.6285,2.6285,0,0,0,41.9785,27.2557Z" transform="translate(0.0006 -0.0837)" style="fill-rule:evenodd"></path></svg>