<svg xmlns="http://www.w3.org/2000/svg" id="b0b644f1-6151-4990-b269-9f7f2a86b448" data-name="Layer 1" width="41.5846" height="41.925" viewBox="0 0 41.5846 41.925"><title>icon6</title><path d="M41.5428,29.4427a.8626.8626,0,0,0-.8236-.5838H33.66l-2.1807-6.538a.9132.9132,0,0,0-1.65,0l-2.1793,6.538H20.59a.8672.8672,0,0,0-.8251.5838.8315.8315,0,0,0,.3148.9436l5.72,4.0446-2.0427,6.4778a.8345.8345,0,0,0,.3263.9352.8865.8865,0,0,0,1.0149-.007l5.5574-3.9662,5.5559,3.9662a.8874.8874,0,0,0,1.0134.007.8331.8331,0,0,0,.3278-.9352L35.51,34.4309l5.7184-4.0446A.8316.8316,0,0,0,41.5428,29.4427ZM33.9888,33.42a.8326.8326,0,0,0-.3191.93l1.4562,4.6186L31.167,36.1431a.8835.8835,0,0,0-1.0249,0l-3.96,2.8252L27.6394,34.35a.8312.8312,0,0,0-.3206-.93l-4.0609-2.8728h5.02a.8666.8666,0,0,0,.8266-.5838l1.5511-4.6508,1.55,4.6508a.8646.8646,0,0,0,.8251.5838h5.02Z" transform="translate(-0.0009 -0.075)" style="fill-rule:evenodd"></path><path d="M9,15.4993A2.5,2.5,0,1,0,11.5,13,2.5028,2.5028,0,0,0,9,15.4993Zm3.3333,0a.8333.8333,0,1,1-.8333-.8331A.8341.8341,0,0,1,12.3333,15.4993Z" transform="translate(-0.0009 -0.075)" style="fill-rule:evenodd"></path><path d="M23,15.4993A2.5,2.5,0,1,0,20.4986,18,2.5019,2.5019,0,0,0,23,15.4993Zm-3.3333,0a.8333.8333,0,1,1,.8319.8331A.8329.8329,0,0,1,19.6667,15.4993Z" transform="translate(-0.0009 -0.075)" style="fill-rule:evenodd"></path><path d="M26,15.4993A2.5,2.5,0,1,0,28.5,13,2.5028,2.5028,0,0,0,26,15.4993Zm3.3333,0a.8333.8333,0,1,1-.8333-.8331A.8341.8341,0,0,1,29.3333,15.4993Z" transform="translate(-0.0009 -0.075)" style="fill-rule:evenodd"></path><path d="M17.1228,29.545,8.69,35.8736l3.58-6.9829a.8389.8389,0,0,0-.0395-.8371.8857.8857,0,0,0-.7512-.41H6.18a4.3656,4.3656,0,0,1-4.4134-4.3072V6.1064A4.3659,4.3659,0,0,1,6.18,1.7979H34.4394a4.3684,4.3684,0,0,1,4.4163,4.3085V25.0593a.8832.8832,0,0,0,1.7659,0V6.1064A6.1161,6.1161,0,0,0,34.4394.075H6.18A6.1136,6.1136,0,0,0,.0009,6.1064v17.23a6.1134,6.1134,0,0,0,6.1793,6.03h3.87L5.3909,38.4578a.8476.8476,0,0,0,.23,1.05.8992.8992,0,0,0,1.1.0185L18.199,30.9122a.8474.8474,0,0,0,.1626-1.2086A.9012.9012,0,0,0,17.1228,29.545Z" transform="translate(-0.0009 -0.075)" style="fill-rule:evenodd"></path></svg>