<svg xmlns="http://www.w3.org/2000/svg" id="bb6c3177-a6ba-44ff-8e9f-2704b10a49ca" data-name="Layer 1" width="41.9235" height="36.8751" viewBox="0 0 41.9235 36.8751"><title>icon5</title><path d="M41.8306,29.0756a5.7719,5.7719,0,0,0-6.5274-2.9008l-5.66,1.3664c-.25-2.1084-1.5424-3.353-4.1247-3.9774l-15.15-3.255c.0449-.3206.0825-.6272.1086-.9128a.83.83,0,0,0-.2693-.6874C8.71,17.338,2.7242,16.8942.924,16.7919a.9512.9512,0,0,0-.65.2283A.8265.8265,0,0,0,0,17.6348v15.197a.8583.8583,0,0,0,.8733.8442h5.24a.8742.8742,0,0,0,.8313-.5824c.0232-.0686.1419-.4228.32-.9716l12.5146,4.032A10.3038,10.3038,0,0,0,23.4,37c1.7712,0,3.8466-.7491,8.4058-2.5564l9.6064-4.221a.8587.8587,0,0,0,.462-.4858A.8223.8223,0,0,0,41.8306,29.0756ZM5.476,31.9876H1.7466V18.5392a27.4,27.4,0,0,1,6.9387,1.197C8.22,23.4336,6.1248,30.0038,5.476,31.9876Zm25.6359.9072c-7.3443,2.9106-7.602,2.8168-10.7477,1.6688L7.78,30.5078C8.497,28.21,9.4978,24.8,10.0713,21.9762l15.0461,3.2312c1.9335.4676,2.7141,1.2054,2.82,2.7468l-1.6772.4046a4.5792,4.5792,0,0,1-1.916.0448l-7.5788-1.4658a.8829.8829,0,0,0-1.0269.6622.8453.8453,0,0,0,.6851.994l7.58,1.4643a6.3474,6.3474,0,0,0,1.1978.1135,6.2743,6.2743,0,0,0,1.4815-.175l2.3506-.5684,6.6925-1.617a4.0623,4.0623,0,0,1,4.045,1.2768Z" transform="translate(0 -0.1245)" style="fill-rule:evenodd"></path><path d="M26,17.0007A6,6,0,1,0,31.9993,11,6.007,6.007,0,0,0,26,17.0007Zm5.9993-4.2866a4.2859,4.2859,0,1,1-4.2852,4.2866A4.2906,4.2906,0,0,1,31.9993,12.7141Z" transform="translate(0 -0.1245)" style="fill-rule:evenodd"></path><path d="M31.9991,20A1,1,0,0,0,33,19V15a1,1,0,0,0-2,0V19A1,1,0,0,0,31.9991,20Z" transform="translate(0 -0.1245)" style="fill-rule:evenodd"></path><path d="M21.6141,12.6684a6.272,6.272,0,1,0-6.2727-6.2712A6.28,6.28,0,0,0,21.6141,12.6684Zm0-10.7521a4.48,4.48,0,1,1-4.4809,4.4809A4.4861,4.4861,0,0,1,21.6141,1.9163Z" transform="translate(0 -0.1245)" style="fill-rule:evenodd"></path><path d="M21.6149,9.3964a1,1,0,0,0,.9992-1v-4a1,1,0,0,0-2,0v4A1,1,0,0,0,21.6149,9.3964Z" transform="translate(0 -0.1245)" style="fill-rule:evenodd"></path></svg>