<svg xmlns="http://www.w3.org/2000/svg" id="a6ff94a5-f131-4d4f-8c58-5832763fdd43" data-name="Layer 1" width="41.9249" height="41.9246" viewBox="0 0 41.9249 41.9246"><title>icon4</title><path d="M11.6028,20.75c1.61,5.1886,5.49,8.6171,9.8588,8.6171,3.4735,0,6.6162-2.1885,8.578-5.6857,1.6485-.81,2.9514-2.0271,2.9514-3.79a.8527.8527,0,0,0-.0338-.1614,5.6416,5.6416,0,0,0,.9206-3.2858,6.978,6.978,0,0,0-.2706-1.95,11.2209,11.2209,0,0,0,.2706-2.3571A12.2574,12.2574,0,0,0,21.4616.0753,12.2573,12.2573,0,0,0,9.0455,12.1367a11.22,11.22,0,0,0,.2705,2.3571,6.9817,6.9817,0,0,0-.2705,1.95C9.0455,18.8439,10.1366,20.6667,11.6028,20.75ZM21.4616,1.7982A10.5066,10.5066,0,0,1,32.1042,12.1367a9.335,9.335,0,0,1-.1661,1.5929l-1.025.0814a8,8,0,0,1-.5838-2.5357.8722.8722,0,0,0-.8853-.8614c-5.2059,0-9.6544-3.4429-9.7559-4.3072a.8871.8871,0,0,0-1.7735,0A2.2347,2.2347,0,0,1,17.3,7.801c-.8648.8357-2.5074.89-3.5765.89a1.6125,1.6125,0,0,0-1.2456.4386c-.7941.8285-.875,3.0557-.825,4.6157-.2088-.0186-.44-.0372-.6736-.05a9.3386,9.3386,0,0,1-.1588-1.5586A10.5054,10.5054,0,0,1,21.4616,1.7982Zm-10.5382,13.62c.7971.0471,1.5264.1528,1.5367.1542a.898.898,0,0,0,.7353-.22.8459.8459,0,0,0,.2824-.6943,12.6414,12.6414,0,0,1,.2338-4.2442c1.1721-.0029,3.4147-.0158,4.8383-1.3929a3.5747,3.5747,0,0,0,.5941-.75,16.4405,16.4405,0,0,0,9.4779,3.84,12.559,12.559,0,0,0,.8971,2.96.8906.8906,0,0,0,.81.5115c.0249,0,.0485-.0015.0735-.0029l1.6059-.1271a5.5526,5.5526,0,0,1,.0955.9913c0,1.6729-.6308,2.5943-.9426,2.5458a.9052.9052,0,0,0-.8014-.0686.87.87,0,0,0-.5295.5915A13.982,13.982,0,0,1,28.7484,22.37a14.3723,14.3723,0,0,1-4.0942.9442,3.0411,3.0411,0,0,0-2.3043-.8385c-1.5427,0-2.6618.7243-2.6618,1.7228S20.8072,25.921,22.35,25.921a2.9865,2.9865,0,0,0,2.3382-.8814,16.0953,16.0953,0,0,0,2.5691-.3915,7.6654,7.6654,0,0,1-5.7956,2.9958c-3.7662,0-7.1294-3.2672-8.3691-8.1314a.8823.8823,0,0,0-.5559-.5715.8447.8447,0,0,0-.31-.0557,1.0181,1.0181,0,0,0-.5206.1442c-.2191,0-.8853-.9185-.8853-2.5857A5.5143,5.5143,0,0,1,10.9234,15.4182Z" transform="translate(0.0008 -0.0753)" style="fill-rule:evenodd"></path><path d="M16.75,18h1.4994c.4152,0,.7509-.4478.7509-1s-.3357-1-.7509-1H16.75c-.414,0-.75.4478-.75,1S16.3357,18,16.75,18Z" transform="translate(0.0008 -0.0753)" style="fill-rule:evenodd"></path><path d="M23.7509,18H25.25c.414,0,.75-.4478.75-1,0-.5539-.3357-1-.75-1H23.7509C23.3357,16,23,16.4461,23,17,23,17.5522,23.3357,18,23.7509,18Z" transform="translate(0.0008 -0.0753)" style="fill-rule:evenodd"></path><path d="M41.8979,40.9512l-1.357-5.2472a4.2548,4.2548,0,0,0-2.2839-2.7523l-9.0431-4.3708a.9027.9027,0,0,0-.6908-.0379.8578.8578,0,0,0-.5041.4607L23.5208,39.15l-.6619-1.2782a7.0776,7.0776,0,0,0,1.5959-3.4707c0-1.5609-1.3382-2.5326-3.4932-2.5326s-3.4932.9717-3.4932,2.5326a7.0655,7.0655,0,0,0,1.5975,3.4707L18.404,39.15l-4.5-10.1458a.8507.8507,0,0,0-.5026-.4607.9027.9027,0,0,0-.6908.0379l-9.043,4.3708a4.2551,4.2551,0,0,0-2.2839,2.7509L.0253,40.9512a.8187.8187,0,0,0,.1593.7238A.8825.8825,0,0,0,.874,42H41.0492a.8833.8833,0,0,0,.6909-.3249A.822.822,0,0,0,41.8979,40.9512Zm-39.9044-.64L3.08,36.1129a2.5505,2.5505,0,0,1,1.37-1.652l8.2132-3.969,4.3549,9.82Zm19.0608-2.156,1.1152,2.156H19.7538l1.1166-2.156a.8239.8239,0,0,0-.0985-.9045,6.9993,6.9993,0,0,1-1.5569-2.85c0-.7616,1.2223-.8441,1.7466-.8441.5258,0,1.7467.0825,1.7467.8441a6.909,6.909,0,0,1-1.5555,2.85A.8265.8265,0,0,0,21.0543,38.1555Zm3.8524,2.156,4.355-9.82,8.2132,3.969a2.5537,2.5537,0,0,1,1.37,1.6534l1.0863,4.1972Z" transform="translate(0.0008 -0.0753)" style="fill-rule:evenodd"></path></svg>