<svg height="340pt" fill="#fff" viewBox="0 -6 340 340" width="340pt" xmlns="http://www.w3.org/2000/svg"><path d="m13.019531 2.21875c-2.417969-1.902344-5.703125-2.2578125-8.472656-.921875-2.765625 1.332031-4.53125 4.128906-4.546875 7.203125v311c.015625 3.070312 1.777344 5.867188 4.542969 7.199219 2.769531 1.335937 6.054687.980469 8.46875-.921875l196.976562-155.5c1.921875-1.515625 3.042969-3.828125 3.042969-6.277344s-1.121094-4.761719-3.042969-6.277344zm0 0"/><path d="m261 0h71c4.417969 0 8 3.582031 8 8v311c0 4.417969-3.582031 8-8 8h-71c-4.417969 0-8-3.582031-8-8v-311c0-4.417969 3.582031-8 8-8zm0 0"/></svg>