<svg width="501" height="406" viewBox="0 0 501 406" fill="none" xmlns="http://www.w3.org/2000/svg">
<g filter="url(#filter0_d)">
<path d="M285 52L32.5 205.5L211.5 309.5L468.5 160L285 52Z" fill="url(#paint0_linear)"/>
</g>
<path d="M470.365 118.759C470.365 116.486 469.797 114.213 469.228 111.941C469.228 110.804 468.66 110.236 468.092 109.668C466.955 107.963 465.818 106.258 463.544 103.985C462.408 102.849 460.702 101.713 458.429 100.008C457.861 99.4396 457.292 99.4396 456.724 98.8714C456.155 98.3032 455.587 98.3032 455.019 97.7349C454.45 97.7349 454.45 97.1667 453.882 97.1667L452.745 96.5985L440.809 89.7798L285.639 0L31 147.171L197.538 246.61L200.948 248.883L210.611 254.565L211.748 257.975L212.316 309.115L466.955 161.945C468.66 160.808 469.797 159.103 469.797 155.694L470.365 118.759Z" fill="url(#paint1_linear)"/>
<path d="M175.939 258.543L454.45 97.7349C455.019 98.3031 455.587 98.3031 456.155 98.8713C456.724 99.4395 457.292 99.4395 457.861 100.008L176.508 262.521L175.939 258.543Z" fill="#3E5A41"/>
<path d="M61.1246 205.698L34.4103 201.72H31V206.266L206.064 307.411C211.179 310.252 215.727 307.979 215.727 301.728V264.794C215.727 256.838 211.748 250.02 199.812 243.769L186.739 236.382L61.1246 205.698Z" fill="#3E5A41"/>
<path d="M31 202.288L199.812 299.455L201.517 298.318V250.019L45.7781 174.445L34.9787 200.015L31 202.288Z" fill="#557B47"/>
<path d="M192.99 244.906L201.516 250.02V298.319L192.99 293.773V244.906Z" fill="#D8D8D8"/>
<path d="M192.991 293.773V293.205V272.749V263.089V260.248V251.724V244.906L38.3889 155.694L34.4102 153.421H33.8418V160.24V171.036V180.696V201.72L61.1245 217.631L70.2187 222.745L191.286 292.637L192.991 293.773Z" fill="#D8D8D8"/>
<path opacity="0.1" d="M192.991 293.773V272.749L33.8418 180.696V201.721L59.4193 216.495L69.082 222.177L70.2187 222.745L192.991 293.773Z" fill="#DCDBE4"/>
<path opacity="0.1" d="M33.8418 160.24V171.036L34.4102 171.604L192.991 263.088V260.247V251.724L34.4102 160.24H33.8418Z" fill="#DCDBE4"/>
<path d="M31 147.17L186.739 236.95V241.496L31 151.716V147.17Z" fill="#3E5A41"/>
<path d="M237.896 226.722L250.969 218.767C256.085 222.176 259.495 225.586 261.2 229.563C262.337 231.836 262.906 234.677 262.906 237.519V249.451V274.453C262.906 277.294 262.337 278.999 260.632 280.136L247.559 288.091C248.696 286.954 249.833 285.25 249.833 282.408V257.406V245.474C249.833 242.633 249.264 239.791 248.127 237.519C246.422 234.109 243.012 230.132 237.896 226.722Z" fill="#FD9903"/>
<path d="M412.387 126.147L425.46 118.191C430.575 121.601 433.985 125.01 435.691 128.988C436.827 131.261 437.396 134.102 437.396 136.943V148.876V173.878C437.396 176.719 436.827 178.423 435.122 179.56L422.049 187.515C423.186 186.379 424.323 184.674 424.323 181.833V156.831V144.898C424.323 142.057 423.754 139.216 422.618 136.943C420.913 133.534 417.502 129.556 412.387 126.147Z" fill="#FD9903"/>
<path opacity="0.5" d="M468.659 111.373C468.091 111.373 466.954 110.805 465.817 110.805C464.112 110.805 460.133 112.509 454.449 115.35C449.334 118.191 257.218 226.154 233.346 239.792C257.786 226.154 451.607 114.214 456.723 110.805C459.565 109.1 462.975 106.259 463.544 102.849C465.249 104.554 466.954 106.259 468.091 108.532C468.091 109.668 468.659 110.805 468.659 111.373Z" fill="#C1C1C1"/>
<defs>
<filter id="filter0_d" x="0.5" y="52" width="500" height="353.5" filterUnits="userSpaceOnUse" color-interpolation-filters="sRGB">
<feFlood flood-opacity="0" result="BackgroundImageFix"/>
<feColorMatrix in="SourceAlpha" type="matrix" values="0 0 0 0 0 0 0 0 0 0 0 0 0 0 0 0 0 0 127 0" result="hardAlpha"/>
<feOffset dy="64"/>
<feGaussianBlur stdDeviation="16"/>
<feComposite in2="hardAlpha" operator="out"/>
<feColorMatrix type="matrix" values="0 0 0 0 0 0 0 0 0 0 0 0 0 0 0 0 0 0 0.16 0"/>
<feBlend mode="normal" in2="BackgroundImageFix" result="effect1_dropShadow"/>
<feBlend mode="normal" in="SourceGraphic" in2="effect1_dropShadow" result="shape"/>
</filter>
<linearGradient id="paint0_linear" x1="56.3438" y1="93.5322" x2="462.105" y2="117.442" gradientUnits="userSpaceOnUse">
<stop stop-color="#3E5A41"/>
<stop offset="1" stop-color="#557B47"/>
</linearGradient>
<linearGradient id="paint1_linear" x1="55.0278" y1="49.8572" x2="464.339" y2="70.104" gradientUnits="userSpaceOnUse">
<stop stop-color="#3E5A41"/>
<stop offset="1" stop-color="#557B47"/>
</linearGradient>
</defs>
</svg>
