<svg width="51" height="51" viewBox="0 0 51 51" fill="none" xmlns="http://www.w3.org/2000/svg">
<path d="M6.80127 44.8642C6.99054 45.7127 7.18056 46.5654 7.36982 47.4184C19.308 44.749 31.6874 44.749 43.6248 47.4184C43.8159 46.5654 44.0094 45.7127 44.1967 44.8642C31.885 42.111 19.1153 42.111 6.80127 44.8642Z" fill="#D2A154"/>
<path d="M23.6431 36.489C20.8528 36.5445 18.066 36.7361 15.29 37.0591C16.4793 37.5332 17.358 38.5453 17.4762 39.8361C17.568 40.8183 17.2296 41.7447 16.6376 42.4458C18.7641 42.215 20.9038 42.0692 23.0436 42.0057C22.3643 41.3918 21.9012 40.5233 21.8581 39.5354C21.8014 38.2423 22.5294 37.1188 23.6431 36.489Z" fill="#D2A154"/>
<path d="M35.7117 37.0591C32.9384 36.7365 30.1459 36.5449 27.3545 36.489C28.4701 37.1225 29.2014 38.2423 29.1399 39.5369C29.0979 40.529 28.6355 41.3937 27.9563 42.0072C30.0938 42.0752 32.2312 42.2188 34.3611 42.4496C33.7752 41.7443 33.4329 40.8202 33.5244 39.8399C33.6441 38.549 34.5206 37.5332 35.7117 37.0591Z" fill="#D2A154"/>
<path d="M40.7605 40.8359C40.581 41.8098 40.0034 42.6009 39.2422 43.1188C40.7106 43.3659 42.1726 43.653 43.6289 43.9756C44.0252 42.1868 44.4257 40.3939 44.8284 38.6006C43.0234 38.202 41.2146 37.8556 39.3975 37.5647C40.4216 38.3414 40.9913 39.5609 40.7605 40.8359Z" fill="#D2A154"/>
<path d="M11.6034 37.5647C9.78554 37.856 7.97674 38.2024 6.17285 38.6006C6.5733 40.3935 6.9745 42.1823 7.37192 43.9756C8.82901 43.6492 10.2914 43.3621 11.7587 43.1188C10.9997 42.6009 10.4221 41.8041 10.2427 40.8279C10.0077 39.5609 10.5815 38.3414 11.6034 37.5647Z" fill="#D2A154"/>
<path d="M41.4019 32.9748L42.2522 33.8592C42.896 33.2374 43.4774 32.6258 43.9877 32.0304L43.0554 31.2295C42.573 31.7954 42.0154 32.381 41.4019 32.9748Z" fill="#D2A154"/>
<path d="M45.7502 24.9739V24.9939L46.9795 24.9739C46.9795 24.0895 46.8401 23.2187 46.559 22.3831L45.3936 22.7767C45.6308 23.482 45.7502 24.2251 45.7502 24.9739Z" fill="#D2A154"/>
<path d="M45.3085 27.3887C45.1589 27.9946 44.8703 28.6437 44.4536 29.3327L45.5057 29.9704C45.9859 29.1756 46.3202 28.4064 46.4819 27.7589L46.5374 27.6036L45.3761 27.2051L45.3085 27.3887Z" fill="#D2A154"/>
<path d="M7.94163 31.2336L7.00928 32.0364C7.51928 32.6299 8.10294 33.24 8.74328 33.8633L9.59592 32.9767C8.98354 32.381 8.42708 31.7954 7.94163 31.2336Z" fill="#D2A154"/>
<path d="M5.60786 22.7767L4.44318 22.3831C4.16135 23.2187 4.01855 24.0895 4.01855 24.9739V24.9939L5.24898 24.9739C5.24935 24.2251 5.36873 23.482 5.60786 22.7767Z" fill="#D2A154"/>
<path d="M5.62425 27.1975L4.49658 27.6875C4.67792 28.4087 5.01263 29.1756 5.49165 29.9704L6.54452 29.3327C6.12632 28.6478 5.84034 27.9942 5.6896 27.3887L5.62425 27.1975Z" fill="#D2A154"/>
<path d="M14.251 31.3013C14.71 31.9367 15.2041 32.5642 15.7239 33.1898L16.6684 32.4006C16.1663 31.7992 15.6892 31.1894 15.2449 30.5801L14.251 31.3013Z" fill="#D2A154"/>
<path d="M19.5494 14.0249L19.8652 12.8372C19.0103 12.6052 18.1229 12.5622 17.2744 12.711L17.4788 13.9214C18.1577 13.8126 18.8641 13.8474 19.5494 14.0249Z" fill="#D2A154"/>
<path d="M12.9195 29.2972L13.9742 28.6655C13.556 27.9682 13.2092 27.2908 12.9463 26.6516L11.8096 27.1276C12.0974 27.8189 12.4703 28.5522 12.9195 29.2972Z" fill="#D2A154"/>
<path d="M12.2989 24.4939C12.1054 23.701 12.0049 23.0006 11.9849 22.2957L10.7549 22.3365C10.7794 23.1313 10.889 23.9084 11.1013 24.7871L12.2989 24.4939Z" fill="#D2A154"/>
<path d="M22.932 16.5184L23.9312 15.8022C23.4174 15.084 22.8254 14.4713 22.1711 13.9824L21.4341 14.9654C21.9868 15.3817 22.4907 15.8996 22.932 16.5184Z" fill="#D2A154"/>
<path d="M15.5509 14.6695L14.7723 13.7134C14.1108 14.1493 13.5113 14.7001 12.9873 15.3427L13.9397 16.1198C14.3836 15.5709 14.8936 15.1085 15.5509 14.6695Z" fill="#D2A154"/>
<path d="M12.8027 17.9826L11.6788 17.4873C11.3464 18.2353 11.0993 19.0354 10.9448 19.8631L12.1522 20.0902C12.2905 19.3581 12.5088 18.6497 12.8027 17.9826Z" fill="#D2A154"/>
<path d="M29.544 14.9885L28.7987 14.0093C28.1455 14.5064 27.5596 15.123 27.0537 15.8411L28.0597 16.5464C28.4923 15.9325 28.9902 15.4055 29.544 14.9885Z" fill="#D2A154"/>
<path d="M38.7158 24.44L39.9036 24.7407C40.1106 23.9451 40.2224 23.1212 40.2462 22.2825L39.0146 22.2485C38.9973 22.9969 38.8953 23.7309 38.7158 24.44Z" fill="#D2A154"/>
<path d="M38.0827 29.2411C38.5232 28.4957 38.8953 27.7629 39.1885 27.0696L38.0552 26.5974C37.7839 27.237 37.4375 27.9181 37.0269 28.6117L38.0827 29.2411Z" fill="#D2A154"/>
<path d="M40.0447 19.8142C39.8853 18.9846 39.6363 18.1863 39.3016 17.4395L38.1777 17.9434C38.4728 18.6007 38.6938 19.3079 38.8373 20.045L40.0447 19.8142Z" fill="#D2A154"/>
<path d="M37.0427 16.087L37.9871 15.3039C37.4673 14.6753 36.8772 14.1434 36.2301 13.7134L36.0986 13.6277L35.4292 14.6598L35.5569 14.7414C36.0986 15.0999 36.5965 15.5551 37.0427 16.087Z" fill="#D2A154"/>
<path d="M33.4866 13.9192L33.6838 12.705C32.8233 12.5686 31.9408 12.6192 31.0923 12.8516L31.421 14.037C32.0942 13.8534 32.8074 13.8126 33.4866 13.9192Z" fill="#D2A154"/>
<path d="M36.7598 31.2494L35.7655 30.5264C35.3212 31.1421 34.849 31.7515 34.3511 32.3575L35.3016 33.1402C35.8153 32.5123 36.3034 31.8792 36.7598 31.2494Z" fill="#D2A154"/>
<path d="M51 24.3603C51 19.8349 48.4421 15.6654 44.3179 13.472C42.69 12.6137 40.8756 12.1233 39.0267 11.9949C38.6739 11.6912 38.3055 11.4014 37.921 11.1441C34.4386 8.85519 29.9699 9.19179 26.7308 11.7441V8.65194H29.8784V6.19336H26.7308V3.58179H24.2715V6.19336H21.1216V8.65194H24.2715V11.7357C21.0282 9.18763 16.5686 8.85292 13.0783 11.1441C12.7084 11.3874 12.362 11.6621 12.0254 11.9541C10.0421 11.9949 8.08369 12.5128 6.34364 13.4841C2.43138 15.6794 0 19.847 0 24.3565C0 25.6572 0.204 26.9462 0.575733 28.072C1.09556 30.4425 2.67844 32.9268 4.68747 35.3215C4.68142 35.3215 4.67764 35.3215 4.6716 35.3215C4.86087 36.1742 5.05089 37.0189 5.24016 37.8715C18.5818 34.8875 32.4205 34.8875 45.7644 37.8715C45.9514 37.0227 46.1448 36.1742 46.3322 35.3215C46.2661 35.3095 46.1984 35.2977 46.135 35.2834C48.2048 32.9347 49.8285 30.5102 50.3623 28.2031C50.785 26.9583 51 25.6671 51 24.3603ZM26.7312 15.2842C29.1973 11.9991 33.3532 11.0879 36.5708 13.2034C39.2224 14.9537 40.8657 18.3155 40.8657 21.9773C40.8657 23.0441 40.7244 24.0978 40.4215 25.2058C39.9236 27.8812 38.0468 30.8317 35.7555 33.5849C33.3211 33.322 30.8788 33.1826 28.4323 33.1108C28.8924 32.4973 29.1894 31.7602 29.1894 30.937C29.1894 29.3357 28.1611 27.9847 26.7308 27.4747V15.2842H26.7312ZM25.5 29.7078C26.1792 29.7078 26.7312 30.2593 26.7312 30.9367C26.7312 31.614 26.1792 32.166 25.5 32.166C24.8204 32.166 24.2696 31.614 24.2696 30.9348C24.2696 30.2552 24.8204 29.7078 25.5 29.7078ZM14.4315 13.2053C15.6306 12.4154 16.9256 12.0161 18.2822 12.0161C20.5651 12.0161 22.7199 13.2155 24.2718 15.2751V27.4725C22.8442 27.9825 21.8133 29.333 21.8133 30.9348C21.8133 31.7557 22.1072 32.4927 22.5643 33.1063C20.131 33.1777 17.6944 33.3174 15.2709 33.5785C12.9638 30.7995 11.0666 27.8128 10.5585 25.0977C10.2774 24.0759 10.1373 23.0237 10.1373 21.9713C10.1343 18.317 11.781 14.9552 14.4315 13.2053ZM2.94327 27.4366C2.6214 26.4366 2.4582 25.4022 2.4582 24.3603C2.4582 20.7386 4.40867 17.3949 7.54422 15.6344C8.21667 15.2608 8.93293 14.9771 9.66998 14.7719C8.91896 16.0031 8.35418 17.3786 8.02551 18.8519L7.5004 18.1727C6.7932 18.7205 6.17667 19.3491 5.66251 20.0435L6.65267 20.7718C7.01118 20.2837 7.44751 19.8455 7.92276 19.4371C7.77429 20.2656 7.67456 21.1107 7.67456 21.975C7.67456 23.25 7.84607 24.5201 8.15962 25.6535C8.66773 28.3731 10.3281 31.2495 12.4172 33.9631C10.755 34.192 9.09613 34.4651 7.44184 34.7817C5.21824 32.3375 3.46422 29.7875 2.94327 27.4366ZM47.9997 27.5321C47.4659 29.8271 45.6529 32.3333 43.3402 34.7439C41.7641 34.4451 40.1865 34.1859 38.6006 33.9668C40.6723 31.2774 42.316 28.4328 42.812 25.7528C43.1505 24.5356 43.322 23.2636 43.322 21.975C43.322 21.1122 43.2223 20.2679 43.0754 19.4417C43.5495 19.847 43.9835 20.2852 44.3462 20.7733L45.3341 20.0431C44.8241 19.3487 44.2008 18.7205 43.4973 18.1723L42.9715 18.8516C42.6606 17.4391 42.1226 16.121 41.4252 14.9321C42.0191 15.1221 42.6005 15.3484 43.1664 15.6461C46.4814 17.4092 48.5414 20.7461 48.5414 24.3599C48.5414 25.3981 48.3703 26.4264 47.9997 27.5321Z" fill="#D2A154"/>
</svg>
